<?xml version="1.0" encoding="UTF-8"?>
<svg version="1.1" xmlns="http://www.w3.org/2000/svg" width="512" height="512">
<path d="M0 0 C1.01823853 0.00215515 2.03647705 0.0043103 3.08557129 0.00653076 C17.70747424 0.05622604 32.00633932 0.36188758 46.375 3.3125 C47.89383789 3.61051514 47.89383789 3.61051514 49.44335938 3.91455078 C84.40916241 10.90666388 118.29408195 24.50020814 147.375 45.3125 C148.03097168 45.77914062 148.68694336 46.24578125 149.36279297 46.7265625 C157.92671158 52.86092795 165.91118336 59.36437404 173.5390625 66.62890625 C175.8901228 68.85366992 178.27873852 70.97471013 180.75 73.0625 C183.9939547 75.87302443 186.78701732 78.91097567 189.5546875 82.1875 C190.77592463 83.61315021 192.032291 85.00938685 193.3203125 86.375 C205.10892472 98.90311926 215.07130619 113.27255893 223.375 128.3125 C223.83084473 129.12605957 224.28668945 129.93961914 224.75634766 130.77783203 C237.71530893 154.06980361 246.71303853 178.27134207 252.375 204.3125 C252.59945801 205.30540039 252.82391602 206.29830078 253.05517578 207.32128906 C259.94322006 239.11307595 259.42702306 276.61059726 252.375 308.3125 C252.05354004 309.827229 252.05354004 309.827229 251.72558594 311.37255859 C242.34566287 354.82467675 221.49492518 395.1788762 191.50390625 427.9609375 C189.69675403 429.95709463 187.97142854 431.99326365 186.25 434.0625 C152.49558105 472.53944087 101.77767212 497.82812886 52.375 508.3125 C51.42318848 508.52422852 50.47137695 508.73595703 49.49072266 508.95410156 C17.67748875 515.76698145 -19.91630042 515.52064808 -51.625 508.3125 C-52.7372998 508.06580566 -53.84959961 507.81911133 -54.99560547 507.56494141 C-99.14198913 497.53363174 -140.07558214 476.8430025 -173.08203125 445.703125 C-175.31582661 443.60315148 -177.59731158 441.60413078 -179.9375 439.625 C-183.19582529 436.79575459 -186.00907281 433.74604029 -188.79296875 430.453125 C-190.75859951 428.15639652 -192.81386063 425.96124011 -194.875 423.75 C-223.82290598 391.52035171 -242.39450344 350.18187971 -251.375 308.125 C-251.57383789 307.20017822 -251.77267578 306.27535645 -251.97753906 305.32250977 C-255.26941369 289.11581484 -256.0003085 273.18212105 -255.9375 256.6875 C-255.93534485 255.66959381 -255.9331897 254.65168762 -255.93096924 253.60293579 C-255.88129854 238.99386477 -255.63040191 224.66174147 -252.625 210.3125 C-252.42632324 209.33764648 -252.22764648 208.36279297 -252.02294922 207.35839844 C-241.77138226 158.35053302 -219.43217348 114.34635801 -184.625 78.3125 C-184.02606934 77.69165527 -183.42713867 77.07081055 -182.81005859 76.43115234 C-175.14623497 68.52999741 -167.40501606 60.98483045 -158.625 54.3125 C-158.08472168 53.89581055 -157.54444336 53.47912109 -156.98779297 53.04980469 C-125.1187531 28.55165293 -88.56685217 12.06060062 -49.1875 4 C-48.46860596 3.85264404 -47.74971191 3.70528809 -47.0090332 3.5534668 C-31.36274321 0.57960898 -15.88931915 -0.06049808 0 0 Z " fill="#178FEB" transform="translate(255.625,-0.3125)"/>
<path d="M0 0 C0.71355652 0.00370605 1.42711304 0.00741211 2.16229248 0.01123047 C30.25460054 0.21748709 60.21476472 7.66400981 83.875 23.4375 C88.94191098 23.23482356 93.18236718 20.22076595 97.5 17.8125 C129.58238745 0.48391595 168.78185629 -5.79015664 204.22216797 4.39990234 C220.48612777 9.27202923 236.06732145 15.0185889 250.875 23.4375 C251.4844043 23.77942383 252.09380859 24.12134766 252.72167969 24.47363281 C262.32160178 29.93499501 262.32160178 29.93499501 264.875 35.4375 C265.31558568 38.73968714 265.27965976 42.01686958 265.25595093 45.34423828 C265.2606309 46.34953646 265.26531087 47.35483463 265.27013266 48.39059639 C265.28210986 51.76313549 265.27261455 55.1352703 265.26318359 58.5078125 C265.26724807 60.92405434 265.27258925 63.34029432 265.27911377 65.75653076 C265.29138518 71.64040879 265.28957253 77.52418162 265.28087585 83.40805674 C265.27410046 88.1900365 265.27318195 92.9719841 265.2764473 97.75396729 C265.276907 98.43458509 265.27736669 99.11520289 265.27784032 99.81644547 C265.2787995 101.19911115 265.27977214 102.58177683 265.2807581 103.96444249 C265.28931256 116.92945398 265.279477 129.89440184 265.263357 142.85940289 C265.24995375 153.98377442 265.25228183 165.10805204 265.26611328 176.23242188 C265.28216812 189.15106439 265.28848858 202.06965113 265.27927649 214.98830223 C265.27832084 216.36587905 265.27737773 217.74345588 265.2764473 219.12103271 C265.27598447 219.79882534 265.27552164 220.47661797 265.27504479 221.17494977 C265.27245461 225.9511398 265.2768265 230.72729445 265.28388596 235.503479 C265.29317869 241.93192765 265.28656176 248.36024055 265.26920319 254.7886734 C265.2652301 257.15058344 265.26638636 259.51250839 265.27299118 261.87441254 C265.28116407 265.09339875 265.27093613 268.3118122 265.25595093 271.53076172 C265.26264309 272.46996019 265.26933526 273.40915867 265.27623022 274.3768177 C265.22266149 280.29149721 264.29274573 283.61679665 260.375 288.1875 C257.33352975 290.72205854 253.94317383 290.72615337 250.12255859 290.67382812 C246.06133123 290.24679488 242.44938052 288.70964819 238.6875 287.1875 C215.49254192 278.03521341 192.72220188 273.95901077 167.875 273.9375 C166.59574646 273.93103455 166.59574646 273.93103455 165.29064941 273.92443848 C148.64036663 273.88836941 132.57885072 275.84187005 116.625 280.75 C115.6155835 281.0497876 114.60616699 281.3495752 113.56616211 281.65844727 C106.55672585 283.78688211 99.84217387 286.30581818 93.19140625 289.37109375 C85.2823308 291.91429469 78.92288891 290.17687718 71.4375 287.125 C61.4137925 283.16675112 51.38533505 280.19719787 40.875 277.8125 C39.49441406 277.48765625 39.49441406 277.48765625 38.0859375 277.15625 C25.59806934 274.30690543 13.25360558 274.16061155 0.5 274.125 C-0.39517334 274.12238159 -1.29034668 274.11976318 -2.21264648 274.11706543 C-14.52431068 274.11320182 -26.21993354 274.51794237 -38.14111328 277.890625 C-40.12442727 278.43734212 -42.10869165 278.88644869 -44.12109375 279.3125 C-53.04656213 281.25779439 -61.35326745 284.268179 -69.76928711 287.79589844 C-75.16727645 289.98680743 -79.28761722 291.09869222 -85.125 290.4375 C-87.40234375 289.23046875 -87.40234375 289.23046875 -89.0625 287.625 C-89.62839844 287.10292969 -90.19429688 286.58085937 -90.77734375 286.04296875 C-93.0859463 283.29272049 -93.25065973 280.68064019 -93.25642776 277.24044991 C-93.26026891 276.38064494 -93.26411005 275.52083998 -93.2680676 274.63498032 C-93.26720112 273.68995616 -93.26633463 272.74493201 -93.26544189 271.77127075 C-93.26841302 270.76768143 -93.27138414 269.7640921 -93.2744453 268.73009098 C-93.28314941 265.35146507 -93.28464198 261.97287453 -93.28613281 258.59423828 C-93.29075972 256.17829309 -93.29578421 253.76234863 -93.30117798 251.34640503 C-93.31431502 244.7720773 -93.32078585 238.19775694 -93.32518864 231.62341928 C-93.32795078 227.51920727 -93.33218805 223.41499762 -93.33669281 219.3107872 C-93.3488849 207.94949809 -93.3591847 196.58821087 -93.3625679 185.22691536 C-93.36278747 184.49974616 -93.36300703 183.77257697 -93.36323325 183.02337234 C-93.36345153 182.29445674 -93.36366981 181.56554113 -93.3638947 180.81453717 C-93.36433817 179.33745837 -93.36478473 177.86037958 -93.36523438 176.38330078 C-93.3654558 175.6506176 -93.36567723 174.91793443 -93.36590537 174.16304873 C-93.36985447 162.28757984 -93.38731214 150.41217228 -93.4105939 138.53672709 C-93.43429882 126.34716175 -93.44676934 114.1576272 -93.44793582 101.96803844 C-93.44885301 95.12287549 -93.45461631 88.27779247 -93.47275543 81.43265152 C-93.48975182 74.99604085 -93.49141548 68.55954152 -93.48261642 62.12291336 C-93.48184345 59.75777277 -93.48622281 57.39262417 -93.49607468 55.02750397 C-93.5087167 51.80405184 -93.50295939 48.58114429 -93.49249268 45.35769653 C-93.50054908 44.41713382 -93.50860548 43.4765711 -93.51690602 42.50750649 C-93.47995209 37.65672279 -93.29195066 34.37320112 -90.125 30.4375 C-88.38598633 28.98706055 -88.38598633 28.98706055 -86.45703125 27.82421875 C-85.73757324 27.38505127 -85.01811523 26.94588379 -84.27685547 26.4934082 C-83.50486816 26.0418335 -82.73288086 25.59025879 -81.9375 25.125 C-80.72537842 24.40606567 -80.72537842 24.40606567 -79.48876953 23.67260742 C-77.04555604 22.23994149 -74.58938121 20.83339049 -72.125 19.4375 C-71.45742676 19.05625977 -70.78985352 18.67501953 -70.10205078 18.28222656 C-61.78205865 13.60885088 -53.15204804 10.19799242 -44.125 7.125 C-43.1767334 6.79927002 -42.2284668 6.47354004 -41.25146484 6.13793945 C-27.59439115 1.68101802 -14.31608326 -0.1348864 0 0 Z " fill="#FDFEFE" transform="translate(170.125,110.5625)"/>
<path d="M0 0 C0 70.29 0 140.58 0 213 C-5.36881148 211.80693078 -10.41110995 210.64189005 -15.625 209.0625 C-54.44948747 197.92839858 -97.49936473 199.20694549 -135.87768555 211.43383789 C-138 212 -138 212 -141 212 C-141 142.04 -141 72.08 -141 0 C-91.86212456 -28.07878597 -49.81043561 -24.9052178 0 0 Z " fill="#188FEB" transform="translate(410,157)"/>
<path d="M0 0 C0.75748535 0.19867676 1.5149707 0.39735352 2.29541016 0.60205078 C17.41387021 4.63625909 31.4118368 10.23533531 45 18 C45 88.29 45 158.58 45 231 C29 227 29 227 24.4921875 225.83984375 C-6.23350409 218.1750114 -38.01454722 217.39105593 -69 224 C-70.25828613 224.26417725 -70.25828613 224.26417725 -71.54199219 224.53369141 C-79.83139908 226.30569018 -87.86878114 228.56063434 -96 231 C-96 160.71 -96 90.42 -96 18 C-65.39705878 2.03324806 -34.42252424 -9.26984502 0 0 Z " fill="#178FEB" transform="translate(198,139)"/>
</svg>
